<svg xmlns="http://www.w3.org/2000/svg" viewBox="0 0 512 512" width="100%" height="100%">
  <defs>
    <radialGradient id="glow" cx="50%" cy="50%" r="50%">
      <stop offset="0%" stop-color="#818cf8" stop-opacity="0.3"/>
      <stop offset="100%" stop-color="#6366f1" stop-opacity="0"/>
    </radialGradient>
    <linearGradient id="pin" x1="0%" y1="0%" x2="100%" y2="100%">
      <stop offset="0%" stop-color="#a5b4fc"/>
      <stop offset="100%" stop-color="#4f46e5"/>
    </linearGradient>
  </defs>
  <!-- Background Glow -->
  <circle cx="256" cy="256" r="240" fill="url(#glow)"/>
  <!-- App Outer Panel -->
  <rect x="32" y="32" width="448" height="448" rx="96" fill="#08090d" stroke="rgba(255,255,255,0.06)" stroke-width="8"/>
  <!-- Compass Grid -->
  <circle cx="256" cy="256" r="120" fill="none" stroke="rgba(255,255,255,0.04)" stroke-width="4" stroke-dasharray="10 10"/>
  <circle cx="256" cy="256" r="180" fill="none" stroke="rgba(255,255,255,0.02)" stroke-width="2"/>
  
  <!-- Map Pin Path -->
  <path d="M256,128 C185.3,128 128,185.3 128,256 C128,336 224,448 256,448 C288,448 384,336 384,256 C384,185.3 326.7,128 256,128 Z M256,304 C229.5,304 208,282.5 208,256 C208,229.5 229.5,208 256,208 C282.5,208 304,229.5 304,256 C304,282.5 282.5,304 256,304 Z" fill="url(#pin)"/>
</svg>
